# Blender v2.82 (sub 7) OBJ File: 'Inexor.blend'
# www.blender.org
mtllib Inexor.mtl
o Plane
v -1.569369 0.000000 -0.989538
v 0.000000 0.000000 -1.900000
v -1.962492 0.000000 -1.211687
v 0.004098 0.000000 -2.349051
v 1.593711 0.000000 -0.987746
v 1.986119 0.000000 -1.219125
v -1.569369 0.159266 -0.989538
v 0.000000 0.159266 -1.900000
v -1.962492 0.159266 -1.211687
v 0.004098 0.159266 -2.349051
v 1.593711 0.159266 -0.987746
v 1.986119 0.159266 -1.219125
vt 0.000000 0.000000
vt 1.000000 1.000000
vt 1.000000 0.000000
vt 1.000000 0.000000
vt 0.000000 0.000000
vt 1.000000 1.000000
vt 0.000000 1.000000
vt 1.000000 0.000000
vt 1.000000 1.000000
vt 1.000000 1.000000
vt 0.000000 1.000000
vt 1.000000 0.000000
vn 0.0000 -1.0000 0.0000
vn 0.0000 1.0000 -0.0000
vn 0.4953 0.0000 -0.8687
vn 0.5079 0.0000 0.8614
vn -0.4920 0.0000 0.8706
vn -0.4968 0.0000 0.8679
vn -0.5006 0.0000 -0.8657
vn 0.5018 0.0000 0.8650
usemtl None
s off
f 1/1/1 4/2/1 2/3/1
f 4/2/1 5/4/1 2/3/1
f 7/5/2 10/6/2 9/7/2
f 10/6/2 11/8/2 12/9/2
f 4/2/3 12/9/3 6/10/3
f 6/10/4 11/8/4 5/4/4
f 1/1/5 9/7/5 3/11/5
f 5/4/6 8/12/6 2/3/6
f 3/11/7 10/6/7 4/2/7
f 2/3/8 7/5/8 1/1/8
f 1/1/1 3/11/1 4/2/1
f 4/2/1 6/10/1 5/4/1
f 7/5/2 8/12/2 10/6/2
f 10/6/2 8/12/2 11/8/2
f 4/2/3 10/6/3 12/9/3
f 6/10/4 12/9/4 11/8/4
f 1/1/5 7/5/5 9/7/5
f 5/4/6 11/8/6 8/12/6
f 3/11/7 9/7/7 10/6/7
f 2/3/8 8/12/8 7/5/8
o Plane.001
v 1.647866 0.000000 -0.869312
v 1.651665 0.000000 0.945033
v 2.036814 0.000000 -1.098692
v 2.038505 0.000000 1.173108
v 0.064774 0.000000 1.869099
v 0.068949 0.000000 2.324624
v 1.647866 0.159266 -0.869312
v 1.651665 0.159266 0.945033
v 2.036814 0.159266 -1.098692
v 2.038505 0.159266 1.173108
v 0.064774 0.159266 1.869099
v 0.068949 0.159266 2.324624
vt 0.000000 0.000000
vt 1.000000 1.000000
vt 1.000000 0.000000
vt 1.000000 0.000000
vt 0.000000 0.000000
vt 1.000000 1.000000
vt 0.000000 1.000000
vt 1.000000 0.000000
vt 1.000000 1.000000
vt 1.000000 1.000000
vt 0.000000 1.000000
vt 1.000000 0.000000
vn 0.0000 -1.0000 0.0000
vn 0.0000 1.0000 -0.0000
vn 0.5047 0.0000 0.8633
vn -1.0000 0.0000 0.0092
vn -0.5080 0.0000 -0.8614
vn -0.5032 0.0000 -0.8642
vn 1.0000 0.0000 -0.0007
vn -1.0000 0.0000 0.0021
usemtl None
s off
f 13/13/9 16/14/9 14/15/9
f 16/14/9 17/16/9 14/15/9
f 19/17/10 22/18/10 21/19/10
f 22/18/10 23/20/10 24/21/10
f 16/14/11 24/21/11 18/22/11
f 18/22/12 23/20/12 17/16/12
f 13/13/13 21/19/13 15/23/13
f 17/16/14 20/24/14 14/15/14
f 15/23/15 22/18/15 16/14/15
f 14/15/16 19/17/16 13/13/16
f 13/13/9 15/23/9 16/14/9
f 16/14/9 18/22/9 17/16/9
f 19/17/10 20/24/10 22/18/10
f 22/18/10 20/24/10 23/20/10
f 16/14/11 22/18/11 24/21/11
f 18/22/12 24/21/12 23/20/12
f 13/13/13 19/17/13 21/19/13
f 17/16/14 23/20/14 20/24/14
f 15/23/15 21/19/15 22/18/15
f 14/15/16 20/24/16 19/17/16
o Plane.002
v -0.064489 0.000000 1.862303
v -1.637657 0.000000 0.958421
v -0.060314 0.000000 2.313832
v -2.028596 0.000000 1.179398
v -1.644477 0.000000 -0.877900
v -2.041060 0.000000 -1.102046
v -0.064489 0.159266 1.862303
v -1.637657 0.159266 0.958421
v -0.060314 0.159266 2.313832
v -2.028596 0.159266 1.179398
v -1.644477 0.159266 -0.877900
v -2.041060 0.159266 -1.102046
vt 0.000000 0.000000
vt 1.000000 1.000000
vt 1.000000 0.000000
vt 1.000000 0.000000
vt 0.000000 0.000000
vt 1.000000 1.000000
vt 0.000000 1.000000
vt 1.000000 0.000000
vt 1.000000 1.000000
vt 0.000000 1.000000
vt 1.000000 1.000000
vt 1.000000 0.000000
vn 0.0000 -1.0000 0.0000
vn 0.0000 1.0000 -0.0000
vn -0.4994 0.0000 0.8664
vn 0.4982 0.0000 -0.8671
vn -1.0000 0.0000 0.0055
vn 0.4920 0.0000 -0.8706
vn 1.0000 0.0000 -0.0092
vn 1.0000 0.0000 -0.0037
usemtl None
s off
f 25/25/17 28/26/17 26/27/17
f 28/26/17 29/28/17 26/27/17
f 31/29/18 34/30/18 33/31/18
f 34/30/18 35/32/18 36/33/18
f 27/34/19 34/30/19 28/26/19
f 26/27/20 31/29/20 25/25/20
f 28/26/21 36/33/21 30/35/21
f 30/35/22 35/32/22 29/28/22
f 25/25/23 33/31/23 27/34/23
f 29/28/24 32/36/24 26/27/24
f 25/25/17 27/34/17 28/26/17
f 28/26/17 30/35/17 29/28/17
f 31/29/18 32/36/18 34/30/18
f 34/30/18 32/36/18 35/32/18
f 27/34/19 33/31/19 34/30/19
f 26/27/20 32/36/20 31/29/20
f 28/26/21 34/30/21 36/33/21
f 30/35/22 36/33/22 35/32/22
f 25/25/23 31/29/23 33/31/23
f 29/28/24 35/32/24 32/36/24
o Plane.003
v -0.535831 0.000000 -0.374192
v -0.004725 0.000000 -0.692674
v -0.928953 0.000000 -0.596341
v -0.000627 0.000000 -1.141725
v 0.522045 0.000000 -0.377013
v 0.914453 0.000000 -0.608391
v -0.535831 0.159266 -0.374192
v -0.004725 0.159266 -0.692674
v -0.928953 0.159266 -0.596341
v -0.000627 0.159266 -1.141725
v 0.522045 0.159266 -0.377013
v 0.914453 0.159266 -0.608391
vt 0.000000 1.000000
vt 1.000000 0.000000
vt 0.000000 0.000000
vt 1.000000 1.000000
vt 1.000000 1.000000
vt 1.000000 0.000000
vt 0.000000 1.000000
vt 0.000000 0.000000
vt 1.000000 1.000000
vt 1.000000 1.000000
vt 1.000000 0.000000
vt 1.000000 0.000000
vn 0.0000 -1.0000 0.0000
vn 0.0000 1.0000 0.0000
vn -0.5065 0.0000 -0.8622
vn 0.5143 0.0000 0.8576
vn 0.5035 0.0000 -0.8640
vn 0.5079 0.0000 0.8614
vn -0.4920 0.0000 0.8706
vn -0.5140 0.0000 0.8578
usemtl None
s off
f 39/37/25 38/38/25 37/39/25
f 42/40/25 38/38/25 40/41/25
f 44/42/26 45/43/26 43/44/26
f 44/42/26 48/45/26 46/46/26
f 39/37/27 46/46/27 40/41/27
f 38/38/28 43/44/28 37/39/28
f 40/41/29 48/45/29 42/40/29
f 42/40/30 47/47/30 41/48/30
f 37/39/31 45/43/31 39/37/31
f 41/48/32 44/42/32 38/38/32
f 39/37/25 40/41/25 38/38/25
f 42/40/25 41/48/25 38/38/25
f 44/42/26 46/46/26 45/43/26
f 44/42/26 47/47/26 48/45/26
f 39/37/27 45/43/27 46/46/27
f 38/38/28 44/42/28 43/44/28
f 40/41/29 46/46/29 48/45/29
f 42/40/30 48/45/30 47/47/30
f 37/39/31 43/44/31 45/43/31
f 41/48/32 47/47/32 44/42/32
o Plane.004
v 0.586401 0.000000 -0.288562
v 0.596662 0.000000 0.330630
v 0.975349 0.000000 -0.517942
v 0.983503 0.000000 0.558704
v 0.059906 0.000000 0.628996
v 0.064082 0.000000 1.084520
v 0.586401 0.159266 -0.288562
v 0.596662 0.159266 0.330630
v 0.975349 0.159266 -0.517942
v 0.983503 0.159266 0.558704
v 0.059906 0.159266 0.628996
v 0.064082 0.159266 1.084520
vt 0.000000 1.000000
vt 1.000000 0.000000
vt 0.000000 0.000000
vt 1.000000 1.000000
vt 1.000000 1.000000
vt 1.000000 0.000000
vt 0.000000 1.000000
vt 0.000000 0.000000
vt 1.000000 1.000000
vt 1.000000 1.000000
vt 1.000000 0.000000
vt 1.000000 0.000000
vn 0.0000 -1.0000 0.0000
vn 0.0000 1.0000 0.0000
vn 0.4964 0.0000 0.8681
vn -1.0000 0.0000 0.0092
vn -0.5080 0.0000 -0.8614
vn -0.4859 0.0000 -0.8740
vn 1.0000 0.0000 -0.0076
vn -0.9999 0.0000 0.0166
usemtl None
s off
f 51/49/33 50/50/33 49/51/33
f 54/52/33 50/50/33 52/53/33
f 56/54/34 57/55/34 55/56/34
f 56/54/34 60/57/34 58/58/34
f 52/53/35 60/57/35 54/52/35
f 54/52/36 59/59/36 53/60/36
f 49/51/37 57/55/37 51/49/37
f 53/60/38 56/54/38 50/50/38
f 51/49/39 58/58/39 52/53/39
f 50/50/40 55/56/40 49/51/40
f 51/49/33 52/53/33 50/50/33
f 54/52/33 53/60/33 50/50/33
f 56/54/34 58/58/34 57/55/34
f 56/54/34 59/59/34 60/57/34
f 52/53/35 58/58/35 60/57/35
f 54/52/36 60/57/36 59/59/36
f 49/51/37 55/56/37 57/55/37
f 53/60/38 59/59/38 56/54/38
f 51/49/39 57/55/39 58/58/39
f 50/50/40 56/54/40 55/56/40
o Plane.005
v -0.053996 0.000000 0.646278
v -0.595362 0.000000 0.345568
v -0.049821 0.000000 1.097807
v -0.986300 0.000000 0.566545
v -0.585376 0.000000 -0.268459
v -0.981960 0.000000 -0.492605
v -0.053996 0.159266 0.646278
v -0.595362 0.159266 0.345568
v -0.049821 0.159266 1.097807
v -0.986300 0.159266 0.566545
v -0.585376 0.159266 -0.268459
v -0.981960 0.159266 -0.492605
vt 0.000000 1.000000
vt 1.000000 0.000000
vt 0.000000 0.000000
vt 1.000000 1.000000
vt 1.000000 1.000000
vt 1.000000 0.000000
vt 0.000000 1.000000
vt 0.000000 0.000000
vt 1.000000 1.000000
vt 1.000000 1.000000
vt 1.000000 0.000000
vt 1.000000 0.000000
vn 0.0000 -1.0000 0.0000
vn 0.0000 1.0000 0.0000
vn 0.9999 0.0000 0.0163
vn -0.4934 0.0000 0.8698
vn 0.4856 0.0000 -0.8742
vn -1.0000 0.0000 -0.0041
vn 0.4920 0.0000 -0.8706
vn 1.0000 0.0000 -0.0092
usemtl None
s off
f 63/61/41 62/62/41 61/63/41
f 66/64/41 62/62/41 64/65/41
f 68/66/42 69/67/42 67/68/42
f 68/66/42 72/69/42 70/70/42
f 65/71/43 68/66/43 62/62/43
f 63/61/44 70/70/44 64/65/44
f 62/62/45 67/68/45 61/63/45
f 64/65/46 72/69/46 66/64/46
f 66/64/47 71/72/47 65/71/47
f 61/63/48 69/67/48 63/61/48
f 63/61/41 64/65/41 62/62/41
f 66/64/41 65/71/41 62/62/41
f 68/66/42 70/70/42 69/67/42
f 68/66/42 71/72/42 72/69/42
f 65/71/43 71/72/43 68/66/43
f 63/61/44 69/67/44 70/70/44
f 62/62/45 68/66/45 67/68/45
f 64/65/46 70/70/46 72/69/46
f 66/64/47 72/69/47 71/72/47
f 61/63/48 67/68/48 69/67/48
o Plane.006
v 0.067875 0.000000 -1.269349
v 1.128810 0.000000 -0.640490
v 0.063700 0.000000 -1.720877
v 1.519749 0.000000 -0.861466
v 1.118825 0.000000 0.565300
v 1.515409 0.000000 0.789446
v 0.067875 0.159266 -1.269349
v 1.128810 0.159266 -0.640490
v 0.063700 0.159266 -1.720877
v 1.519749 0.159266 -0.861466
v 1.118825 0.159266 0.565300
v 1.515409 0.159266 0.789446
vt 0.000000 0.000000
vt 1.000000 1.000000
vt 1.000000 0.000000
vt 1.000000 1.000000
vt 0.000000 0.000000
vt 1.000000 1.000000
vt 0.000000 1.000000
vt 1.000000 0.000000
vt 1.000000 1.000000
vt 1.000000 0.000000
vt 0.000000 1.000000
vt 1.000000 0.000000
vn 0.0000 -1.0000 0.0000
vn 0.0000 1.0000 0.0000
vn -1.0000 0.0000 -0.0083
vn 0.5083 0.0000 -0.8612
vn -0.5099 0.0000 0.8602
vn 1.0000 0.0000 0.0026
vn -0.4920 0.0000 0.8706
vn -1.0000 0.0000 0.0092
usemtl None
s off
f 73/73/49 76/74/49 74/75/49
f 78/76/49 74/75/49 76/74/49
f 79/77/50 82/78/50 81/79/50
f 80/80/50 84/81/50 82/78/50
f 77/82/51 80/80/51 74/75/51
f 75/83/52 82/78/52 76/74/52
f 74/75/53 79/77/53 73/73/53
f 76/74/54 84/81/54 78/76/54
f 78/76/55 83/84/55 77/82/55
f 73/73/56 81/79/56 75/83/56
f 73/73/49 75/83/49 76/74/49
f 78/76/49 77/82/49 74/75/49
f 79/77/50 80/80/50 82/78/50
f 80/80/50 83/84/50 84/81/50
f 77/82/51 83/84/51 80/80/51
f 75/83/52 81/79/52 82/78/52
f 74/75/53 80/80/53 79/77/53
f 76/74/54 82/78/54 84/81/54
f 78/76/55 84/81/55 83/84/55
f 73/73/56 79/77/56 81/79/56
o Plane.007
v 1.069066 0.000000 0.700083
v -0.006010 0.000000 1.304451
v 1.462188 0.000000 0.922233
v -0.010108 0.000000 1.753502
v -1.045261 0.000000 0.692908
v -1.437669 0.000000 0.924286
v 1.069066 0.159266 0.700083
v -0.006010 0.159266 1.304451
v 1.462188 0.159266 0.922233
v -0.010108 0.159266 1.753502
v -1.045261 0.159266 0.692908
v -1.437669 0.159266 0.924286
vt 0.000000 0.000000
vt 1.000000 1.000000
vt 1.000000 0.000000
vt 1.000000 1.000000
vt 0.000000 0.000000
vt 1.000000 1.000000
vt 0.000000 1.000000
vt 1.000000 0.000000
vt 1.000000 1.000000
vt 1.000000 0.000000
vt 1.000000 0.000000
vt 0.000000 1.000000
vn 0.0000 -1.0000 0.0000
vn 0.0000 1.0000 0.0000
vn -0.5023 0.0000 0.8647
vn -0.5079 0.0000 -0.8614
vn 0.4920 0.0000 -0.8706
vn 0.5072 0.0000 -0.8619
vn 0.4917 0.0000 0.8708
vn -0.4900 0.0000 -0.8717
usemtl None
s off
f 85/85/57 88/86/57 86/87/57
f 90/88/57 86/87/57 88/86/57
f 91/89/58 94/90/58 93/91/58
f 92/92/58 96/93/58 94/90/58
f 88/86/59 96/93/59 90/88/59
f 90/88/60 95/94/60 89/95/60
f 85/85/61 93/91/61 87/96/61
f 89/95/62 92/92/62 86/87/62
f 87/96/63 94/90/63 88/86/63
f 86/87/64 91/89/64 85/85/64
f 85/85/57 87/96/57 88/86/57
f 90/88/57 89/95/57 86/87/57
f 91/89/58 92/92/58 94/90/58
f 92/92/58 95/94/58 96/93/58
f 88/86/59 94/90/59 96/93/59
f 90/88/60 96/93/60 95/94/60
f 85/85/61 91/89/61 93/91/61
f 89/95/62 95/94/62 92/92/62
f 87/96/63 93/91/63 94/90/63
f 86/87/64 92/92/64 91/89/64
o Plane.008
v -1.125036 0.000000 0.582071
v -1.110895 0.000000 -0.651156
v -1.513985 0.000000 0.811450
v -1.497735 0.000000 -0.879231
v -0.061657 0.000000 -1.245402
v -0.065832 0.000000 -1.700926
v -1.125036 0.159266 0.582071
v -1.110895 0.159266 -0.651156
v -1.513985 0.159266 0.811450
v -1.497735 0.159266 -0.879231
v -0.061657 0.159266 -1.245402
v -0.065832 0.159266 -1.700926
vt 0.000000 0.000000
vt 1.000000 1.000000
vt 1.000000 0.000000
vt 1.000000 1.000000
vt 0.000000 0.000000
vt 1.000000 1.000000
vt 0.000000 1.000000
vt 1.000000 0.000000
vt 1.000000 1.000000
vt 1.000000 0.000000
vt 1.000000 0.000000
vt 0.000000 1.000000
vn 0.0000 -1.0000 0.0000
vn 0.0000 1.0000 0.0000
vn 1.0000 0.0000 -0.0092
vn 0.5080 0.0000 0.8614
vn 0.4928 0.0000 0.8701
vn -1.0000 0.0000 -0.0096
vn 0.9999 0.0000 0.0115
vn -0.4977 0.0000 -0.8673
usemtl None
s off
f 97/97/65 100/98/65 98/99/65
f 102/100/65 98/99/65 100/98/65
f 103/101/66 106/102/66 105/103/66
f 104/104/66 108/105/66 106/102/66
f 102/100/67 107/106/67 101/107/67
f 97/97/68 105/103/68 99/108/68
f 101/107/69 104/104/69 98/99/69
f 99/108/70 106/102/70 100/98/70
f 98/99/71 103/101/71 97/97/71
f 100/98/72 108/105/72 102/100/72
f 97/97/65 99/108/65 100/98/65
f 102/100/65 101/107/65 98/99/65
f 103/101/66 104/104/66 106/102/66
f 104/104/66 107/106/66 108/105/66
f 102/100/67 108/105/67 107/106/67
f 97/97/68 103/101/68 105/103/68
f 101/107/69 107/106/69 104/104/69
f 99/108/70 105/103/70 106/102/70
f 98/99/71 104/104/71 103/101/71
f 100/98/72 106/102/72 108/105/72
o Plane.009
v -0.461004 0.000000 0.181684
v -0.061004 0.000000 -0.041162
v -0.461004 0.000000 -0.276317
v -0.061004 0.000000 -0.497636
v -0.461004 0.159266 0.181684
v -0.061004 0.159266 -0.041162
v -0.461004 0.159266 -0.276317
v -0.061004 0.159266 -0.497636
vt 0.000000 1.000000
vt 1.000000 0.000000
vt 0.000000 0.000000
vt 1.000000 0.000000
vt 0.000000 1.000000
vt 0.000000 0.000000
vt 1.000000 1.000000
vt 1.000000 1.000000
vn 0.0000 -1.0000 0.0000
vn 0.0000 1.0000 0.0000
vn 1.0000 0.0000 0.0000
vn -1.0000 0.0000 0.0000
vn -0.4841 0.0000 -0.8750
vn 0.4867 0.0000 0.8736
usemtl None
s off
f 111/109/73 110/110/73 109/111/73
f 114/112/74 115/113/74 113/114/74
f 112/115/75 114/112/75 110/110/75
f 109/111/76 115/113/76 111/109/76
f 111/109/77 116/116/77 112/115/77
f 110/110/78 113/114/78 109/111/78
f 111/109/73 112/115/73 110/110/73
f 114/112/74 116/116/74 115/113/74
f 112/115/75 116/116/75 114/112/75
f 109/111/76 113/114/76 115/113/76
f 111/109/77 115/113/77 116/116/77
f 110/110/78 114/112/78 113/114/78
o Plane.010_Plane.011
v 0.069213 0.000000 -0.489298
v 0.062203 0.000000 -0.031465
v 0.465854 0.000000 -0.260298
v 0.457522 0.000000 0.196772
v 0.069213 0.159266 -0.489298
v 0.062203 0.159266 -0.031465
v 0.465854 0.159266 -0.260298
v 0.457522 0.159266 0.196772
vt 0.000000 1.000000
vt 1.000000 0.000000
vt 0.000000 0.000000
vt 1.000000 0.000000
vt 0.000000 1.000000
vt 0.000000 0.000000
vt 1.000000 1.000000
vt 1.000000 1.000000
vn 0.0000 -1.0000 0.0000
vn 0.0000 1.0000 0.0000
vn 0.9998 0.0000 0.0182
vn -0.9999 0.0000 -0.0153
vn -0.5000 0.0000 0.8660
vn 0.5000 0.0000 -0.8660
usemtl None
s off
f 119/117/79 118/118/79 117/119/79
f 122/120/80 123/121/80 121/122/80
f 119/117/81 124/123/81 120/124/81
f 118/118/82 121/122/82 117/119/82
f 120/124/83 122/120/83 118/118/83
f 117/119/84 123/121/84 119/117/84
f 119/117/79 120/124/79 118/118/79
f 122/120/80 124/123/80 123/121/80
f 119/117/81 123/121/81 124/123/81
f 118/118/82 122/120/82 121/122/82
f 120/124/83 124/123/83 122/120/83
f 117/119/84 121/122/84 123/121/84
o Plane.011_Plane.012
v -0.399813 0.000000 0.298844
v -0.006823 0.000000 0.533831
v -0.003173 0.000000 0.069843
v 0.388495 0.000000 0.305593
v -0.399813 0.159266 0.298844
v -0.006823 0.159266 0.533831
v -0.003173 0.159266 0.069843
v 0.388495 0.159266 0.305593
vt 0.000000 1.000000
vt 1.000000 0.000000
vt 0.000000 0.000000
vt 1.000000 0.000000
vt 0.000000 1.000000
vt 0.000000 0.000000
vt 1.000000 1.000000
vt 1.000000 1.000000
vn 0.0000 -1.0000 0.0000
vn 0.0000 1.0000 0.0000
vn 0.5157 0.0000 -0.8568
vn -0.5132 0.0000 0.8583
vn 0.5000 0.0000 0.8660
vn -0.5000 0.0000 -0.8660
usemtl None
s off
f 127/125/85 126/126/85 125/127/85
f 130/128/86 131/129/86 129/130/86
f 127/125/87 132/131/87 128/132/87
f 126/126/88 129/130/88 125/127/88
f 128/132/89 130/128/89 126/126/89
f 125/127/90 131/129/90 127/125/90
f 127/125/85 128/132/85 126/126/85
f 130/128/86 132/131/86 131/129/86
f 127/125/87 131/129/87 132/131/87
f 126/126/88 130/128/88 129/130/88
f 128/132/89 132/131/89 130/128/89
f 125/127/90 129/130/90 131/129/90
