{
    "asset" : {
        "generator" : "Khronos glTF Blender I/O v1.1.45",
        "version" : "2.0"
    },
    "scene" : 0,
    "scenes" : [
        {
            "name" : "Scene",
            "nodes" : [
                0,
                1,
                2,
                3,
                4,
                5,
                6,
                7,
                8,
                9,
                10,
                11,
                12,
                13
            ]
        }
    ],
    "nodes" : [
        {
            "name" : "Light",
            "rotation" : [
                0.10710984468460083,
                0.8602954745292664,
                -0.30197903513908386,
                0.3965197205543518
            ],
            "translation" : [
                3.0983824729919434,
                5.903861999511719,
                -2.672585964202881
            ]
        },
        {
            "name" : "Camera",
            "rotation" : [
                0.41304346919059753,
                0.5273967385292053,
                -0.3267405331134796,
                0.6666995882987976
            ],
            "translation" : [
                9.835882186889648,
                4.958309173583984,
                2.318464756011963
            ]
        },
        {
            "mesh" : 0,
            "name" : "Plane",
            "scale" : [
                2.5,
                2.5,
                2.5
            ]
        },
        {
            "mesh" : 1,
            "name" : "Plane.001",
            "rotation" : [
                0,
                -0.866025447845459,
                0,
                0.4999999701976776
            ],
            "scale" : [
                2.5,
                2.5,
                2.5
            ],
            "translation" : [
                0.006216228008270264,
                0,
                -0.004967331886291504
            ]
        },
        {
            "mesh" : 2,
            "name" : "Plane.002",
            "rotation" : [
                0,
                -0.8660253882408142,
                0,
                -0.5000000596046448
            ],
            "scale" : [
                2.5,
                2.5,
                2.5
            ],
            "translation" : [
                0.007791518699377775,
                0,
                0.008421152830123901
            ]
        },
        {
            "mesh" : 3,
            "name" : "Plane.003",
            "scale" : [
                2.5,
                2.5,
                2.5
            ],
            "translation" : [
                -0.004725337028503418,
                0,
                1.2073264122009277
            ]
        },
        {
            "mesh" : 4,
            "name" : "Plane.004",
            "rotation" : [
                0,
                -0.866025447845459,
                0,
                0.4999999701976776
            ],
            "scale" : [
                2.5,
                2.5,
                2.5
            ],
            "translation" : [
                -1.0487864017486572,
                0,
                -0.6193705797195435
            ]
        },
        {
            "mesh" : 5,
            "name" : "Plane.005",
            "rotation" : [
                0,
                -0.8660253882408142,
                0,
                -0.5000000596046448
            ],
            "scale" : [
                2.5,
                2.5,
                2.5
            ],
            "translation" : [
                1.0500869750976562,
                0,
                -0.6044317483901978
            ]
        },
        {
            "mesh" : 6,
            "name" : "Plane.006",
            "rotation" : [
                0,
                -0.5,
                0,
                0.8660253882408142
            ],
            "scale" : [
                2.5,
                2.5,
                2.5
            ],
            "translation" : [
                -0.5166382789611816,
                0,
                0.3095104992389679
            ]
        },
        {
            "mesh" : 7,
            "name" : "Plane.007",
            "rotation" : [
                0,
                -1,
                0,
                -2.821299744937278e-07
            ],
            "scale" : [
                2.5,
                2.5,
                2.5
            ],
            "translation" : [
                -0.006009012460708618,
                0,
                -0.5955498218536377
            ]
        },
        {
            "mesh" : 8,
            "name" : "Plane.008",
            "rotation" : [
                0,
                -0.49999943375587463,
                0,
                -0.8660257458686829
            ],
            "scale" : [
                2.5,
                2.5,
                2.5
            ],
            "translation" : [
                0.5345525741577148,
                0,
                0.29884645342826843
            ]
        },
        {
            "mesh" : 9,
            "name" : "Plane.009",
            "scale" : [
                0.19999998807907104,
                0.19999998807907104,
                0.19999998807907104
            ],
            "translation" : [
                -0.261004239320755,
                0,
                -0.07631704211235046
            ]
        },
        {
            "mesh" : 10,
            "name" : "Plane.010",
            "rotation" : [
                0,
                -0.866025447845459,
                0,
                0.4999999701976776
            ],
            "scale" : [
                0.19999998807907104,
                0.19999998807907104,
                0.19999998807907104
            ],
            "translation" : [
                0.19264863431453705,
                0,
                -0.18709272146224976
            ]
        },
        {
            "mesh" : 11,
            "name" : "Plane.011",
            "rotation" : [
                0,
                -0.5,
                0,
                0.8660253882408142
            ],
            "scale" : [
                0.19999998807907104,
                0.19999998807907104,
                0.19999998807907104
            ],
            "translation" : [
                -0.07637806236743927,
                0,
                0.3430481255054474
            ]
        }
    ],
    "meshes" : [
        {
            "name" : "Plane",
            "primitives" : [
                {
                    "attributes" : {
                        "POSITION" : 0,
                        "NORMAL" : 1,
                        "TEXCOORD_0" : 2
                    },
                    "indices" : 3
                }
            ]
        },
        {
            "name" : "Plane.001",
            "primitives" : [
                {
                    "attributes" : {
                        "POSITION" : 4,
                        "NORMAL" : 5,
                        "TEXCOORD_0" : 6
                    },
                    "indices" : 3
                }
            ]
        },
        {
            "name" : "Plane.002",
            "primitives" : [
                {
                    "attributes" : {
                        "POSITION" : 7,
                        "NORMAL" : 8,
                        "TEXCOORD_0" : 9
                    },
                    "indices" : 3
                }
            ]
        },
        {
            "name" : "Plane.003",
            "primitives" : [
                {
                    "attributes" : {
                        "POSITION" : 10,
                        "NORMAL" : 11,
                        "TEXCOORD_0" : 12
                    },
                    "indices" : 13
                }
            ]
        },
        {
            "name" : "Plane.004",
            "primitives" : [
                {
                    "attributes" : {
                        "POSITION" : 14,
                        "NORMAL" : 15,
                        "TEXCOORD_0" : 16
                    },
                    "indices" : 13
                }
            ]
        },
        {
            "name" : "Plane.005",
            "primitives" : [
                {
                    "attributes" : {
                        "POSITION" : 17,
                        "NORMAL" : 18,
                        "TEXCOORD_0" : 19
                    },
                    "indices" : 13
                }
            ]
        },
        {
            "name" : "Plane.006",
            "primitives" : [
                {
                    "attributes" : {
                        "POSITION" : 20,
                        "NORMAL" : 21,
                        "TEXCOORD_0" : 22
                    },
                    "indices" : 3
                }
            ]
        },
        {
            "name" : "Plane.007",
            "primitives" : [
                {
                    "attributes" : {
                        "POSITION" : 23,
                        "NORMAL" : 24,
                        "TEXCOORD_0" : 25
                    },
                    "indices" : 3
                }
            ]
        },
        {
            "name" : "Plane.008",
            "primitives" : [
                {
                    "attributes" : {
                        "POSITION" : 26,
                        "NORMAL" : 27,
                        "TEXCOORD_0" : 28
                    },
                    "indices" : 3
                }
            ]
        },
        {
            "name" : "Plane.009",
            "primitives" : [
                {
                    "attributes" : {
                        "POSITION" : 29,
                        "NORMAL" : 30,
                        "TEXCOORD_0" : 31
                    },
                    "indices" : 32
                }
            ]
        },
        {
            "name" : "Plane.011",
            "primitives" : [
                {
                    "attributes" : {
                        "POSITION" : 33,
                        "NORMAL" : 34,
                        "TEXCOORD_0" : 35
                    },
                    "indices" : 32
                }
            ]
        },
        {
            "name" : "Plane.012",
            "primitives" : [
                {
                    "attributes" : {
                        "POSITION" : 36,
                        "NORMAL" : 37,
                        "TEXCOORD_0" : 38
                    },
                    "indices" : 32
                }
            ]
        }
    ],
    "accessors" : [
        {
            "bufferView" : 0,
            "componentType" : 5126,
            "count" : 44,
            "max" : [
                0.7944475412368774,
                0.0637064278125763,
                -0.3950982689857483
            ],
            "min" : [
                -0.784996747970581,
                0,
                -0.9396205544471741
            ],
            "type" : "VEC3"
        },
        {
            "bufferView" : 1,
            "componentType" : 5126,
            "count" : 44,
            "type" : "VEC3"
        },
        {
            "bufferView" : 2,
            "componentType" : 5126,
            "count" : 44,
            "type" : "VEC2"
        },
        {
            "bufferView" : 3,
            "componentType" : 5123,
            "count" : 60,
            "type" : "SCALAR"
        },
        {
            "bufferView" : 4,
            "componentType" : 5126,
            "count" : 44,
            "max" : [
                0.7944475412368774,
                0.0637064278125763,
                -0.3950982689857483
            ],
            "min" : [
                -0.784996747970581,
                0,
                -0.9396205544471741
            ],
            "type" : "VEC3"
        },
        {
            "bufferView" : 5,
            "componentType" : 5126,
            "count" : 44,
            "type" : "VEC3"
        },
        {
            "bufferView" : 6,
            "componentType" : 5126,
            "count" : 44,
            "type" : "VEC2"
        },
        {
            "bufferView" : 7,
            "componentType" : 5126,
            "count" : 44,
            "max" : [
                0.7944475412368774,
                0.0637064278125763,
                -0.3950982689857483
            ],
            "min" : [
                -0.784996747970581,
                0,
                -0.9396205544471741
            ],
            "type" : "VEC3"
        },
        {
            "bufferView" : 8,
            "componentType" : 5126,
            "count" : 44,
            "type" : "VEC3"
        },
        {
            "bufferView" : 9,
            "componentType" : 5126,
            "count" : 44,
            "type" : "VEC2"
        },
        {
            "bufferView" : 10,
            "componentType" : 5126,
            "count" : 48,
            "max" : [
                0.367671400308609,
                0.0637064278125763,
                -0.6326074004173279
            ],
            "min" : [
                -0.36969122290611267,
                0,
                -0.9396205544471741
            ],
            "type" : "VEC3"
        },
        {
            "bufferView" : 11,
            "componentType" : 5126,
            "count" : 48,
            "type" : "VEC3"
        },
        {
            "bufferView" : 12,
            "componentType" : 5126,
            "count" : 48,
            "type" : "VEC2"
        },
        {
            "bufferView" : 13,
            "componentType" : 5123,
            "count" : 60,
            "type" : "SCALAR"
        },
        {
            "bufferView" : 14,
            "componentType" : 5126,
            "count" : 48,
            "max" : [
                0.367671400308609,
                0.0637064278125763,
                -0.6326074004173279
            ],
            "min" : [
                -0.36969122290611267,
                0,
                -0.9396205544471741
            ],
            "type" : "VEC3"
        },
        {
            "bufferView" : 15,
            "componentType" : 5126,
            "count" : 48,
            "type" : "VEC3"
        },
        {
            "bufferView" : 16,
            "componentType" : 5126,
            "count" : 48,
            "type" : "VEC2"
        },
        {
            "bufferView" : 17,
            "componentType" : 5126,
            "count" : 48,
            "max" : [
                0.367671400308609,
                0.0637064278125763,
                -0.6326074004173279
            ],
            "min" : [
                -0.36969122290611267,
                0,
                -0.9396205544471741
            ],
            "type" : "VEC3"
        },
        {
            "bufferView" : 18,
            "componentType" : 5126,
            "count" : 48,
            "type" : "VEC3"
        },
        {
            "bufferView" : 19,
            "componentType" : 5126,
            "count" : 48,
            "type" : "VEC2"
        },
        {
            "bufferView" : 20,
            "componentType" : 5126,
            "count" : 44,
            "max" : [
                0.5726638436317444,
                0.0637064278125763,
                -0.5153831839561462
            ],
            "min" : [
                -0.5872793197631836,
                0,
                -0.9396205544471741
            ],
            "type" : "VEC3"
        },
        {
            "bufferView" : 21,
            "componentType" : 5126,
            "count" : 44,
            "type" : "VEC3"
        },
        {
            "bufferView" : 22,
            "componentType" : 5126,
            "count" : 44,
            "type" : "VEC2"
        },
        {
            "bufferView" : 23,
            "componentType" : 5126,
            "count" : 44,
            "max" : [
                0.5726638436317444,
                0.0637064278125763,
                -0.5153831839561462
            ],
            "min" : [
                -0.5872793197631836,
                0,
                -0.9396205544471741
            ],
            "type" : "VEC3"
        },
        {
            "bufferView" : 24,
            "componentType" : 5126,
            "count" : 44,
            "type" : "VEC3"
        },
        {
            "bufferView" : 25,
            "componentType" : 5126,
            "count" : 44,
            "type" : "VEC2"
        },
        {
            "bufferView" : 26,
            "componentType" : 5126,
            "count" : 44,
            "max" : [
                0.5726638436317444,
                0.0637064278125763,
                -0.5153831839561462
            ],
            "min" : [
                -0.5872793197631836,
                0,
                -0.9396205544471741
            ],
            "type" : "VEC3"
        },
        {
            "bufferView" : 27,
            "componentType" : 5126,
            "count" : 44,
            "type" : "VEC3"
        },
        {
            "bufferView" : 28,
            "componentType" : 5126,
            "count" : 44,
            "type" : "VEC2"
        },
        {
            "bufferView" : 29,
            "componentType" : 5126,
            "count" : 28,
            "max" : [
                1,
                0.796330451965332,
                1.2900047302246094
            ],
            "min" : [
                -1,
                0,
                -2.1065971851348877
            ],
            "type" : "VEC3"
        },
        {
            "bufferView" : 30,
            "componentType" : 5126,
            "count" : 28,
            "type" : "VEC3"
        },
        {
            "bufferView" : 31,
            "componentType" : 5126,
            "count" : 28,
            "type" : "VEC2"
        },
        {
            "bufferView" : 32,
            "componentType" : 5123,
            "count" : 36,
            "type" : "SCALAR"
        },
        {
            "bufferView" : 33,
            "componentType" : 5126,
            "count" : 28,
            "max" : [
                1,
                0.796330451965332,
                1.2900047302246094
            ],
            "min" : [
                -1,
                0,
                -2.1065971851348877
            ],
            "type" : "VEC3"
        },
        {
            "bufferView" : 34,
            "componentType" : 5126,
            "count" : 28,
            "type" : "VEC3"
        },
        {
            "bufferView" : 35,
            "componentType" : 5126,
            "count" : 28,
            "type" : "VEC2"
        },
        {
            "bufferView" : 36,
            "componentType" : 5126,
            "count" : 28,
            "max" : [
                1,
                0.796330451965332,
                1.2900047302246094
            ],
            "min" : [
                -1,
                0,
                -2.1065971851348877
            ],
            "type" : "VEC3"
        },
        {
            "bufferView" : 37,
            "componentType" : 5126,
            "count" : 28,
            "type" : "VEC3"
        },
        {
            "bufferView" : 38,
            "componentType" : 5126,
            "count" : 28,
            "type" : "VEC2"
        }
    ],
    "bufferViews" : [
        {
            "buffer" : 0,
            "byteLength" : 528,
            "byteOffset" : 0
        },
        {
            "buffer" : 0,
            "byteLength" : 528,
            "byteOffset" : 528
        },
        {
            "buffer" : 0,
            "byteLength" : 352,
            "byteOffset" : 1056
        },
        {
            "buffer" : 0,
            "byteLength" : 120,
            "byteOffset" : 1408
        },
        {
            "buffer" : 0,
            "byteLength" : 528,
            "byteOffset" : 1528
        },
        {
            "buffer" : 0,
            "byteLength" : 528,
            "byteOffset" : 2056
        },
        {
            "buffer" : 0,
            "byteLength" : 352,
            "byteOffset" : 2584
        },
        {
            "buffer" : 0,
            "byteLength" : 528,
            "byteOffset" : 2936
        },
        {
            "buffer" : 0,
            "byteLength" : 528,
            "byteOffset" : 3464
        },
        {
            "buffer" : 0,
            "byteLength" : 352,
            "byteOffset" : 3992
        },
        {
            "buffer" : 0,
            "byteLength" : 576,
            "byteOffset" : 4344
        },
        {
            "buffer" : 0,
            "byteLength" : 576,
            "byteOffset" : 4920
        },
        {
            "buffer" : 0,
            "byteLength" : 384,
            "byteOffset" : 5496
        },
        {
            "buffer" : 0,
            "byteLength" : 120,
            "byteOffset" : 5880
        },
        {
            "buffer" : 0,
            "byteLength" : 576,
            "byteOffset" : 6000
        },
        {
            "buffer" : 0,
            "byteLength" : 576,
            "byteOffset" : 6576
        },
        {
            "buffer" : 0,
            "byteLength" : 384,
            "byteOffset" : 7152
        },
        {
            "buffer" : 0,
            "byteLength" : 576,
            "byteOffset" : 7536
        },
        {
            "buffer" : 0,
            "byteLength" : 576,
            "byteOffset" : 8112
        },
        {
            "buffer" : 0,
            "byteLength" : 384,
            "byteOffset" : 8688
        },
        {
            "buffer" : 0,
            "byteLength" : 528,
            "byteOffset" : 9072
        },
        {
            "buffer" : 0,
            "byteLength" : 528,
            "byteOffset" : 9600
        },
        {
            "buffer" : 0,
            "byteLength" : 352,
            "byteOffset" : 10128
        },
        {
            "buffer" : 0,
            "byteLength" : 528,
            "byteOffset" : 10480
        },
        {
            "buffer" : 0,
            "byteLength" : 528,
            "byteOffset" : 11008
        },
        {
            "buffer" : 0,
            "byteLength" : 352,
            "byteOffset" : 11536
        },
        {
            "buffer" : 0,
            "byteLength" : 528,
            "byteOffset" : 11888
        },
        {
            "buffer" : 0,
            "byteLength" : 528,
            "byteOffset" : 12416
        },
        {
            "buffer" : 0,
            "byteLength" : 352,
            "byteOffset" : 12944
        },
        {
            "buffer" : 0,
            "byteLength" : 336,
            "byteOffset" : 13296
        },
        {
            "buffer" : 0,
            "byteLength" : 336,
            "byteOffset" : 13632
        },
        {
            "buffer" : 0,
            "byteLength" : 224,
            "byteOffset" : 13968
        },
        {
            "buffer" : 0,
            "byteLength" : 72,
            "byteOffset" : 14192
        },
        {
            "buffer" : 0,
            "byteLength" : 336,
            "byteOffset" : 14264
        },
        {
            "buffer" : 0,
            "byteLength" : 336,
            "byteOffset" : 14600
        },
        {
            "buffer" : 0,
            "byteLength" : 224,
            "byteOffset" : 14936
        },
        {
            "buffer" : 0,
            "byteLength" : 336,
            "byteOffset" : 15160
        },
        {
            "buffer" : 0,
            "byteLength" : 336,
            "byteOffset" : 15496
        },
        {
            "buffer" : 0,
            "byteLength" : 224,
            "byteOffset" : 15832
        }
    ],
    "buffers" : [
        {
            "byteLength" : 16056,
            "uri" : "data:application/octet-stream;base64,"
        }
    ]
}
