{
    "asset" : {
        "generator" : "Khronos glTF Blender I/O v1.1.45",
        "version" : "2.0"
    },
    "scene" : 0,
    "scenes" : [
        {
            "name" : "Scene",
            "nodes" : [
                0
            ]
        }
    ],
    "nodes" : [
        {
            "mesh" : 0,
            "name" : "Cube",
            "scale" : [
                2.890000104904175,
                0.1899999976158142,
                7.839360237121582
            ],
            "translation" : [
                0,
                0,
                -5
            ]
        }
    ],
    "meshes" : [
        {
            "name" : "Cube.002",
            "primitives" : [
                {
                    "attributes" : {
                        "POSITION" : 0,
                        "NORMAL" : 1,
                        "TEXCOORD_0" : 2
                    },
                    "indices" : 3
                }
            ]
        }
    ],
    "accessors" : [
        {
            "bufferView" : 0,
            "componentType" : 5126,
            "count" : 1000,
            "max" : [
                1,
                1,
                1
            ],
            "min" : [
                -1,
                -1.0000003576278687,
                -1
            ],
            "type" : "VEC3"
        },
        {
            "bufferView" : 1,
            "componentType" : 5126,
            "count" : 1000,
            "type" : "VEC3"
        },
        {
            "bufferView" : 2,
            "componentType" : 5126,
            "count" : 1000,
            "type" : "VEC2"
        },
        {
            "bufferView" : 3,
            "componentType" : 5123,
            "count" : 2868,
            "type" : "SCALAR"
        }
    ],
    "bufferViews" : [
        {
            "buffer" : 0,
            "byteLength" : 12000,
            "byteOffset" : 0
        },
        {
            "buffer" : 0,
            "byteLength" : 12000,
            "byteOffset" : 12000
        },
        {
            "buffer" : 0,
            "byteLength" : 8000,
            "byteOffset" : 24000
        },
        {
            "buffer" : 0,
            "byteLength" : 5736,
            "byteOffset" : 32000
        }
    ],
    "buffers" : [
        {
            "byteLength" : 37736,
            "uri" : "data:application/octet-stream;base64,"
        }
    ]
}
